<svg height="512pt" viewBox="0 0 512 512" width="512pt" xmlns="http://www.w3.org/2000/svg"><path d="M221.5 46.6c-8.5 1.1-17.6 2.7-22.5 4.1-10.5 2.9-32.5 10.5-37.5 13-16.8 8.3-28.3 21.2-30.1 33.5-.3 2.4-1 5.5-1.6 7-1 2.6-1.2 2.7-7.2 2.1-5.1-.4-6.9-.2-10.1 1.5-8.6 4.4-12.7 10.2-18.5 25.6-3.6 9.7-4.2 12.3-5 24.1-1.4 18.7-.3 26.6 6.5 47 2.5 7.4 3.6 13.2 4.4 22.5.6 6.9 1.7 16.7 2.3 21.7 1 8.3 1 9.5-.6 11.2-1.2 1.3-1.9 4.4-2.3 10.5-.3 4.7-.9 8.6-1.3 8.6-.3 0-2.2-1.5-4.2-3.3-3.5-3.2-3.7-3.3-4.6-1.3-3.1 6.6-3.4 8.8-2.6 17.3.4 4.9.9 7.8 1.2 6.6.4-2.7 2.7-3.6 5.4-2.2 2.5 1.3 5 7 7.8 17.4 2.1 7.9 4.8 15 11.1 29.8 2.7 6.4 3.1 8 1.9 8.7-.8.5-2.4.3-4-.5-3.1-1.6-9-8-9-9.7 0-.6-.3-.9-.6-.5-.4.3.3 2.4 1.5 4.7 1.1 2.2 1.8 4 1.6 4-1.3 0 3.2 5.5 5.8 7.1 2.7 1.5 3.3 1.6 6.9.3 2.2-.8 4.8-1.4 5.8-1.4 1.7 0 6 3.9 6 5.6 0 3.9 15.4 33.9 22.5 43.8 11.1 15.6 39.4 39.2 59.4 49.5 14.9 7.7 23.2 10.2 35.8 10.8 10.9.5 11.4.5 22-3.2 15.6-5.4 30.5-13.4 43.9-23.5 10.8-8.1 30.3-28 36.3-37 6.9-10.4 20.1-36.9 20.1-40.4 0-1.7 4.3-5.6 6.1-5.6.8 0 3.2.7 5.4 1.4 3.4 1.2 4.4 1.2 6.7 0 2.4-1.2 6.4-5.7 6.7-7.6.1-.4 1.1-2.9 2.2-5.4 1.1-2.6 1.8-4.9 1.5-5.1-.2-.3-.7.5-1.1 1.7-1.7 5.4-10.7 12.7-13.5 11-1.2-.7-.8-2.3 1.9-8.7 6.3-14.8 9-21.9 11.1-29.8 2.8-10.4 5.3-16.1 7.8-17.4 2.7-1.4 5-.5 5.4 2.2.3 1.2.8-1.7 1.2-6.4.8-8.7.6-10.9-2.1-16.5l-1.4-3.1-3.6 3.4c-2 1.8-4 3.3-4.3 3.3-.4 0-1-3.9-1.3-8.6-.4-6.1-1.1-9.2-2.3-10.5-1.5-1.7-1.6-2.7-.5-9.1.7-4 1.6-13.9 2.1-21.9.7-12.7 1.2-15.6 3.8-22 6.2-15.7 6.7-18.1 6.8-36.6v-17.2l5.2-4.6c7.6-6.8 12.6-17.4 13-27.4.2-4.2.2-9 0-10.6-.3-2.8-.5-2.5-3.6 3.8-3.8 7.6-6.3 9.7-12.7 10.5-8.9 1-17.7-5.7-33.5-25.3-21.3-26.3-47.4-42.7-79.5-50.1-11.5-2.7-13.3-2.8-41.5-3-16.2-.1-30.8 0-32.5.2zm103 121.4c3.9 1.8 12.1 5.6 18.3 8.6l11.2 5.3v4.3c0 2.4-1.1 11.5-2.5 20.2-1.4 8.8-2.5 19.7-2.5 24.3s-.4 8.3-.9 8.3c-.4 0-1.9-.8-3.2-1.8-1.3-1.1-4.6-2.7-7.2-3.7-8.9-3.4-30.1-.6-49 6.5-6.3 2.4-7.7 4.1-7.7 9.4 0 3.3-.4 3.8-4.7 5.8-4.6 2.2-6 2.3-28.3 2.3-22.6 0-23.7-.1-28.2-2.3-4.4-2.2-4.8-2.7-4.8-5.9 0-1.9-.4-4.3-1-5.3-2.2-4.2-26.1-10.9-41.5-11.7l-11-.5-6.9 3.6c-3.8 2-7 3.6-7.2 3.6s-.4-3.7-.4-8.3-1.1-15.5-2.5-24.3c-1.4-8.7-2.5-18.2-2.5-21 0-4.7.3-5.5 3.8-8.6 5.4-4.9 13.5-8.6 22.8-10.5 6.8-1.4 9.9-1.4 22.9-.4 47 3.6 74.8 3.8 96 .6 21.2-3.1 27.6-2.9 37 1.5zm-153.7 92.7c-1 .2-2.6.2-3.5 0-1-.3-.2-.5 1.7-.5s2.7.2 1.8.5zm158 0c-1 .2-2.6.2-3.5 0-1-.3-.2-.5 1.7-.5s2.7.2 1.8.5zm-170.3 1.4c-2.2.4-5.3.8-7 .7h-3l3-.8c1.7-.4 4.8-.8 7-.8h4zm186-.1 3 .8h-3c-1.6.1-4.8-.3-7-.7l-4-.9h4c2.2 0 5.4.4 7 .8zm-196.6 1.4c-.2.2-1.7.6-3.4 1-2.2.5-2.6.4-1.5-.4 1.4-.9 5.9-1.5 4.9-.6zm202.8.2c-.3.3-1.2.4-1.9.1-.8-.3-.5-.6.6-.6 1.1-.1 1.7.2 1.3.5zm-178.4 12.2c-3.5 1.9-7.7 6.9-9.8 11.8-4.8 11.4-.6 23.7 10.2 30.1 10.8 6.3 25.5 1.6 31.5-10.1 3.1-6 2.9-13.6-.5-21-1.5-3.2-2.5-6.1-2.3-6.3.8-.8 7.5 5.8 10.5 10.4 4.9 7.4 6.5 13.5 5.3 19.9-3.3 16.2-14.5 29-29.5 33.6-5.5 1.6-8.8 1.9-17.5 1.6-9.8-.3-11.3-.6-18.2-3.9-7.9-3.8-15.7-10.4-18.5-15.8-1.5-3-1.5-3.6 0-8.9.9-3.1 3-8.1 4.5-11.1 4.6-8.9 4.6-8.9 6.9-6 1.7 2 2 2.1 2.1.6 0-3.9 5.8-14.3 9.6-17.5 5.5-4.6 5.4-4.5 10.9-6.9 5.9-2.6 9.4-3 4.8-.5zm156.5.6c8 3.4 14 8.9 17.3 16 1.6 3.4 2.9 7 2.9 8.1.1 1.9.2 1.8 2.1-.4 1.1-1.3 2.1-2.2 2.3-2 3.1 3.7 7.8 12.2 9.5 17 1.9 5.8 2 6.4.5 9.5-2.1 4.4-10.4 12.7-15.7 15.8-6.1 3.5-15.3 5.6-25 5.6-19.8 0-33.7-9.1-41.2-27-5.2-12.2-3.2-22.3 6.5-33.3 5-5.6 8-6.5 5.1-1.5-9.3 16.2 1.2 36.1 19 36.1 17.1.1 28.1-16.9 21.3-32.8-2-4.8-6.2-9.8-9.7-11.7-4.7-2.5-1.1-2.1 5.1.6zm-150.2 10.1c2.7 4.1-3.9 8.8-7.4 5.3-1.7-1.7-1.5-4.4.4-6.3 2.1-2.1 5.3-1.6 7 1zm128.6.1c1.4 3.1.1 5.7-3.1 6.2-4.5.7-6.7-4-3.5-7.2 2.3-2.4 5.3-1.9 6.6 1zm-197.9 4.5c.7 2.8-1.3 1-3.7-3.3l-1.9-3.3 2.5 2.3c1.5 1.3 2.8 3.3 3.1 4.3zm281.8-4.4c-2 3.7-4 5.9-4.1 4.4 0-.8 1-2.5 2.2-3.8 2.6-2.7 3.2-2.9 1.9-.6zm-134.2 12.7c1.5 1.5 3 5.7 4.6 12.7 4.1 18.4 10 30.4 19.8 40.6 6.8 7.1 13.2 11.5 20.8 14.4 6.4 2.5 26.2 5.9 34 5.9 3.2 0 5.9.4 5.9 1 0 1.6-6.1 11.1-11.3 17.7-2.7 3.4-9.7 10.3-15.6 15.2-5.8 5-14.5 12.6-19.2 16.8-9.9 8.9-26.1 19.3-35.5 22.9-8.5 3.2-16.3 3.2-24.6 0-11.7-4.4-26.1-14-37.8-25.1-4.7-4.5-11.9-10.8-16-14-12.5-9.8-18.4-16.5-26.9-30.8l-2.3-3.7h6.1c8.1 0 30-3.6 36.5-6 20.6-7.7 34.3-26.5 40.6-55.5 2.7-12.9 4.1-14.5 12.5-14.5 5.2 0 6.5.4 8.4 2.4zm-59.6 11.2c1.1 1.1-.5 3.5-3.5 5-2.3 1.2-3.3 1.3-4.2.4-.8-.8-.4-1.7 1.7-3.6 2.8-2.4 4.8-3 6-1.8zm129.2.3c.7 1.2-3 4.7-5.6 5.4-1.3.4-2.2 0-2.6-1-1.2-3 6.5-7.1 8.2-4.4z"/><path d="M227.5 342.6c-3.1 3.4-6.5 12.4-6.5 17.3 0 4.5 1.7 9.9 3.9 12.5.9 1 4.9 3.4 9 5.4 6.2 2.9 8.4 3.5 15 3.6 7 .1 8.1-.2 14.1-3.6 7.7-4.3 9.3-5.9 11-11.2s.8-12.4-2.4-19c-5-10.2-10.1-10-7.2.2 2.1 7.8 2 11.4-.5 14.6-7 8.9-24.8 8.9-31.8 0-2.5-3.2-2.7-7.2-.5-14.3 2.4-8 .5-10.5-4.1-5.5zM202.8 395.6c-.3.3 1.4 2.4 3.8 4.6s4.4 4.8 4.4 5.7c0 1 1.5 3.1 3.3 4.9 14.1 13.7 54.3 13.5 67.7-.3 1.8-1.8 3-3.8 2.6-4.3-.3-.5 1.6-3 4.3-5.5 3.6-3.4 4.5-4.7 3.4-5.1-1.9-.8-88.8-.8-89.5 0zM88.1 302.6c0 1.1.3 1.4.6.6.3-.7.2-1.6-.1-1.9-.3-.4-.6.2-.5 1.3zM407.1 302.6c0 1.1.3 1.4.6.6.3-.7.2-1.6-.1-1.9-.3-.4-.6.2-.5 1.3z"/></svg>